<svg width="786" height="262" viewBox="0 0 786 262" fill="none" xmlns="http://www.w3.org/2000/svg">
<path d="M254.448 56.7636L70.2297 0C33.5128 37.772 -28.906 137.245 15.1543 232.963L226.382 230.446C152.076 192.252 213.457 99.3363 254.448 56.7636Z" fill="#8D0000"/>
<path d="M295.907 116.583L144.66 70C114.515 100.998 63.2675 182.631 99.442 261.181L272.865 259.116C211.857 227.772 262.252 151.521 295.907 116.583Z" fill="#DB3434"/>
<path d="M350.125 195V67H377.188V123.437H378.875L424.938 67H457.375L409.875 124.312L457.938 195H425.563L390.5 142.375L377.188 158.625V195H350.125ZM485.144 196.813C479.019 196.813 473.56 195.75 468.769 193.625C463.977 191.458 460.185 188.271 457.394 184.062C454.644 179.813 453.269 174.521 453.269 168.188C453.269 162.854 454.248 158.375 456.206 154.75C458.165 151.125 460.831 148.208 464.206 146C467.581 143.792 471.415 142.125 475.706 141C480.04 139.875 484.581 139.083 489.331 138.625C494.915 138.042 499.415 137.5 502.831 137C506.248 136.458 508.727 135.667 510.269 134.625C511.81 133.583 512.581 132.042 512.581 130V129.625C512.581 125.667 511.331 122.604 508.831 120.437C506.373 118.271 502.873 117.187 498.331 117.187C493.54 117.187 489.727 118.25 486.894 120.375C484.06 122.458 482.185 125.083 481.269 128.25L456.644 126.25C457.894 120.417 460.352 115.375 464.019 111.125C467.685 106.833 472.415 103.542 478.206 101.25C484.04 98.9167 490.79 97.75 498.456 97.75C503.79 97.75 508.894 98.375 513.769 99.625C518.685 100.875 523.04 102.812 526.831 105.437C530.665 108.062 533.685 111.437 535.894 115.562C538.102 119.646 539.206 124.542 539.206 130.25V195H513.956V181.688H513.206C511.665 184.688 509.602 187.333 507.019 189.625C504.435 191.875 501.331 193.646 497.706 194.937C494.081 196.188 489.894 196.813 485.144 196.813ZM492.769 178.437C496.685 178.437 500.144 177.667 503.144 176.125C506.144 174.542 508.498 172.417 510.206 169.75C511.915 167.083 512.769 164.062 512.769 160.687V150.5C511.935 151.042 510.79 151.542 509.331 152C507.915 152.417 506.31 152.812 504.519 153.187C502.727 153.521 500.935 153.833 499.144 154.125C497.352 154.375 495.727 154.604 494.269 154.812C491.144 155.271 488.415 156 486.081 157C483.748 158 481.935 159.354 480.644 161.063C479.352 162.729 478.706 164.812 478.706 167.312C478.706 170.938 480.019 173.708 482.644 175.625C485.31 177.5 488.685 178.437 492.769 178.437ZM574.038 196.813C567.913 196.813 562.454 195.75 557.663 193.625C552.871 191.458 549.079 188.271 546.288 184.062C543.538 179.813 542.163 174.521 542.163 168.188C542.163 162.854 543.142 158.375 545.1 154.75C547.058 151.125 549.725 148.208 553.1 146C556.475 143.792 560.308 142.125 564.6 141C568.933 139.875 573.475 139.083 578.225 138.625C583.808 138.042 588.308 137.5 591.725 137C595.142 136.458 597.621 135.667 599.163 134.625C600.704 133.583 601.475 132.042 601.475 130V129.625C601.475 125.667 600.225 122.604 597.725 120.437C595.267 118.271 591.767 117.187 587.225 117.187C582.433 117.187 578.621 118.25 575.788 120.375C572.954 122.458 571.079 125.083 570.163 128.25L545.538 126.25C546.788 120.417 549.246 115.375 552.913 111.125C556.579 106.833 561.308 103.542 567.1 101.25C572.933 98.9167 579.683 97.75 587.35 97.75C592.683 97.75 597.788 98.375 602.663 99.625C607.579 100.875 611.933 102.812 615.725 105.437C619.558 108.062 622.579 111.437 624.788 115.562C626.996 119.646 628.1 124.542 628.1 130.25V195H602.85V181.688H602.1C600.558 184.688 598.496 187.333 595.913 189.625C593.329 191.875 590.225 193.646 586.6 194.937C582.975 196.188 578.788 196.813 574.038 196.813ZM581.663 178.437C585.579 178.437 589.038 177.667 592.038 176.125C595.038 174.542 597.392 172.417 599.1 169.75C600.808 167.083 601.663 164.062 601.663 160.687V150.5C600.829 151.042 599.683 151.542 598.225 152C596.808 152.417 595.204 152.812 593.413 153.187C591.621 153.521 589.829 153.833 588.038 154.125C586.246 154.375 584.621 154.604 583.163 154.812C580.038 155.271 577.308 156 574.975 157C572.642 158 570.829 159.354 569.538 161.063C568.246 162.729 567.6 164.812 567.6 167.312C567.6 170.938 568.913 173.708 571.538 175.625C574.204 177.5 577.579 178.437 581.663 178.437ZM635.556 195V99H660.931V115.938H662.056C664.056 110.312 667.39 105.875 672.056 102.625C676.723 99.375 682.306 97.75 688.806 97.75C695.39 97.75 700.994 99.3958 705.619 102.687C710.244 105.937 713.327 110.354 714.869 115.938H715.869C717.827 110.438 721.369 106.042 726.494 102.75C731.66 99.4167 737.765 97.75 744.806 97.75C753.765 97.75 761.035 100.604 766.619 106.312C772.244 111.979 775.056 120.021 775.056 130.437V195H748.494V135.687C748.494 130.354 747.077 126.354 744.244 123.688C741.41 121.021 737.869 119.687 733.619 119.687C728.785 119.687 725.015 121.229 722.306 124.312C719.598 127.354 718.244 131.375 718.244 136.375V195H692.431V135.125C692.431 130.417 691.077 126.667 688.369 123.875C685.702 121.083 682.181 119.687 677.806 119.687C674.848 119.687 672.181 120.437 669.806 121.937C667.473 123.396 665.619 125.458 664.244 128.125C662.869 130.75 662.181 133.833 662.181 137.375V195H635.556Z" fill="black"/>
</svg>
